<svg xmlns="http://www.w3.org/2000/svg" data-name="Слой 1" viewBox="0 0 100 125" x="0px" y="0px"><title>Безымянный-27</title><path d="M6.01842,51.04194c-.68783-23.411,17.97287-43.48435,42.10544-44.8601,27.702-1.57914,45.99978,19.83121,46.60667,41.33144.73928,26.18965-19.88924,44.31863-41.68536,45.73885C24.52981,95.11019,6.1143,74.7274,6.01842,51.04194ZM92.926,49.4582A41.5592,41.5592,0,0,0,64.15406,10.459a40.96054,40.96054,0,0,0-31.67673,2.108C17.06762,20.1138,8.44856,32.63216,7.82816,49.87846,7.357,62.977,12.49637,74.1568,22.87416,82.14074c9.92728,7.6374,21.38511,10.81546,34.05716,8.42827C67.216,88.63148,76.023,84.28654,82.77467,76.0354A42.44783,42.44783,0,0,0,92.926,49.4582Z"/><path d="M23.58167,67.14557c-.28657-.06166-.42026-.13835-.5004-.10076-4.311,2.0194-5.22637,1.75372-6.69034-2.93587a46.50754,46.50754,0,0,1-1.91918-20.23666,9.964,9.964,0,0,0,.30429-1.4204c-.03007-1.47762,2.61972-.69946,2.08393-2.5a5.46287,5.46287,0,0,1-.03186-3.24266,29.31175,29.31175,0,0,1,7.90975-12.52884A26.9154,26.9154,0,0,1,30.26311,19.994a39.4936,39.4936,0,0,1,17.89605-4.95795,1.76935,1.76935,0,0,1,1.64849.55467,1.76409,1.76409,0,0,0,2.83233.36671c1.3761-1.10859,2.73578-.56286,4.15627-.192,3.53367.92259,6.92,2.32,10.319,3.58074,4.72449,1.75229,8.95127,4.48387,11.00231,9.52012.1378.33839.45668.66828.44451.99284-.17364,4.62583,2.87869,8.259,3.836,12.55751A55.30759,55.30759,0,0,1,83.323,53.68251a2.97914,2.97914,0,0,1-.86227,1.96218c-.57785.69884-.52089,1.21642.247,1.79315,1.095.8225.78907,1.90088.32357,2.95864-1.12795,2.56311-2.34289,5.09415-3.32937,7.711-.58528,1.55275-2.54652,1.67485-2.97412,2.86934-.45262,1.26429.158,2.83761-.53678,4.25018-1.43006,2.90741-4.3764,3.83953-6.92752,5a30.40585,30.40585,0,0,1-9.73959,2.85439c-2.685.2289-5.17818-.07092-7.38555,1.97068a3.5985,3.5985,0,0,1-3.18692.26769,9.31647,9.31647,0,0,0-4.3444-.09718c-1.19216.17284-2.44079.55745-3.23112-.85887a1.28262,1.28262,0,0,0-1.24541-.59727c-4.04512.10523-7.49038-1.81449-11.0436-3.3228-3.56325-1.51261-5.38346-4.8525-7.563-7.72855-1.01995-1.34585-.00649-2.78213,1.06621-3.89832C22.99948,68.3907,23.61228,68.10431,23.58167,67.14557ZM16.54905,51.3253a23.68408,23.68408,0,0,0,1.7808,10.74906c1.49565,3.42553,1.42272,3.45278,5.052,2.00576.6787-.27064,1.36527-.53118,2.06639-.73341.7995-.23065,1.715-.69056,2.31784.26187a2.30732,2.30732,0,0,1-.0992,2.45892A25.8933,25.8933,0,0,1,24.949,69.4898c-1.11963,1.21888-.89726,2.20845-.07512,3.56392,2.32325,3.83036,6.07911,5.49268,9.95274,7.05249,1.972.794,3.8942,1.417,5.8388-.208.92094-.7697,2.00769-.54433,2.22527.73078.3195,1.87243,1.54639,1.95637,2.96047,1.85521a29.12189,29.12189,0,0,1,4.01211.087c2.66083.17539,3.59671-.92313,3.167-3.50347-.202-1.21315-1.51744-2.80965.46228-3.38325,1.677-.48595,2.00111,1.40738,2.63081,2.51775,1.40711,2.48111,2.23189,2.845,5.03868,2.00281a16.92066,16.92066,0,0,1,3.14168-.94487c3.4126-.35038,6.10082-2.31936,8.847-4.11743a2.13016,2.13016,0,0,0,.77588-3.12459A9.02909,9.02909,0,0,0,69.576,67.28673c-.74617-.33311-1.24138-.89709-.81216-1.72411a1.42662,1.42662,0,0,1,2.18987-.52724c.92953.56451,1.72013,1.3548,2.63824,1.94195,1.179.75391,2.5356,1.337,3.65068.05459a13.25243,13.25243,0,0,0,2.73721-6.63285c.29-1.70742-1.42666-2.64544-2.64366-3.62038-.6587-.52778-1.57211-.93856-1.19252-1.99811.37651-1.05091,1.38254-1.026,2.17207-.75838,2.03627.69019,2.61162-.468,2.976-2.08308a9.20327,9.20327,0,0,0,.0149-4.35237c-.6012-2.36549-1.17136-4.74149-1.86885-7.07893-.59633-1.99842-1.31726-3.93743-3.59747-4.737-1.30563-.45781-1.77668-1.56353-.7434-2.55216,1.82415-1.74509.95758-3.22025-.04711-4.85366a14.56589,14.56589,0,0,0-3.49233-3.7096c-4.12239-3.28231-9.049-4.56355-14.02328-5.83223a9.1834,9.1834,0,0,0-6.30157.47392c-.88487.39449-1.982.9595-2.65721-.09629-1.56885-2.453-3.79483-1.255-5.63464-.939-2.0561.35311-4.43465.799-4.88566,3.625-.11007.68939-.405,1.58025-1.25006,1.62773-1.07216.06031-1.26778-.89163-1.51945-1.73257-.46139-1.542-1.62277-1.41726-2.60979-.76473-4.4989,2.97434-8.75547,6.29213-11.42266,11.08866-1.55552,2.79734-3.68043,5.91092.20282,8.72438a1.27765,1.27765,0,0,1,.37762.614c.41781,1.23444.23061,2.08428-1.26053,2.42486-4.00923.9157-4.00185.95149-4.02328,4.89152C16.54511,49.61555,16.54905,50.47045,16.54905,51.3253Z"/><path d="M54.50221,70.29441c-1.096,0-2.1952.05512-3.28723-.01043-3.17135-.19033-4.535-1.56858-4.75751-4.81751-.08313-1.2144-.02635-2.43775-.0655-3.656-.03392-1.05467-.344-1.9795-1.5914-2.0522-1.22792-.07155-1.70836.711-1.80219,1.82643a17.69828,17.69828,0,0,1-1.77833,6.66309,2.50774,2.50774,0,0,1-2.90419,1.62854c-2.0692-.35875-2.79555-.93973-2.72965-3.0943.11172-3.65233.43521-7.29786.57351-10.94987.14689-3.879.098-3.88078-3.58884-4.83183-3.325-.85767-3.8227-2.02294-1.73936-4.70861A51.10589,51.10589,0,0,1,35.73968,40.893a90.57672,90.57672,0,0,0,7.43011-8.03678c2.61565-3.218,5.27058-4.00982,9.23462-2.24138,5.02646,2.24245,7.83651,6.36807,11.1139,10.20684,1.09946,1.28773,1.92384,2.80656,2.93233,4.17684a8.21876,8.21876,0,0,1,1.59928,3.6402c.70581,4.50029.25807,4.64463-3.35743,5.1857-1.43154.21432-1.93936.84863-1.7863,2.146.24246,2.05515.49789,4.1112.84134,6.15115a10.28882,10.28882,0,0,1,.03915,4.34087c-.68555,2.71135-1.35834,3.38673-4.182,3.68248-1.69252.17736-3.39627.24774-5.09492.36622ZM32.06176,47.92424a6.45139,6.45139,0,0,0,.9778.63284,7.004,7.004,0,0,0,1.07006.23016c3.98454.65024,4.4134,1.09583,4.39259,5.13778a82.31741,82.31741,0,0,1-.33046,10.95045c-.09571.68952-.22309,1.49489.808,1.84182.96743-.53293,1.00935-1.51869,1.11-2.46535.15441-1.45149.38156-2.90312.41172-4.3581.04228-2.0403,1.29785-2.729,3.0181-2.98056,3.02987-.44318,5.02557,1.33547,5.14454,4.55809.23445,6.34788.23445,6.34793,6.6,6.25366,3.97506-.05889,4.41912-.44148,4.21537-4.47291-.14108-2.79045-.60416-5.563-.83673-8.35091-.19409-2.32652.41239-3.03113,2.71157-3.46218,1.03234-.19351,2.23064.15683,3.14052-1.0939-2.53936-4.92186-6.39679-9.00778-9.67963-13.48834a20.24633,20.24633,0,0,0-3.31148-3.3841c-2.32433-1.96428-3.62007-2.00423-5.68945.09759C41.21589,38.24072,36.73721,43.029,32.06176,47.92424Z"/><text x="0" y="115" fill="#000000" font-size="5px" font-weight="bold" font-family="'Helvetica Neue', Helvetica, Arial-Unicode, Arial, Sans-serif"></text><text x="0" y="120" fill="#000000" font-size="5px" font-weight="bold" font-family="'Helvetica Neue', Helvetica, Arial-Unicode, Arial, Sans-serif"></text></svg>