<svg xmlns="http://www.w3.org/2000/svg" viewBox="0 0 24 30" x="0px" y="0px"><title>reload</title><path d="M17.738 6C16.208 4.764 14.097 4 12 4a8 8 0 1 0 8 8 1 1 0 0 1 2 0c0 5.523-4.477 10-10 10S2 17.523 2 12 6.477 2 12 2c2.549 0 5.107.916 7 2.449V3a1 1 0 0 1 2 0v4a1 1 0 0 1-1 1h-4a1 1 0 0 1 0-2h1.738z" fill="#000" fill-rule="nonzero"/><text x="0" y="39" fill="#000000" font-size="5px" font-weight="bold" font-family="'Helvetica Neue', Helvetica, Arial-Unicode, Arial, Sans-serif">Created by Graphik Designz</text><text x="0" y="44" fill="#000000" font-size="5px" font-weight="bold" font-family="'Helvetica Neue', Helvetica, Arial-Unicode, Arial, Sans-serif">from the Noun Project</text></svg>